<?xml version="1.0" encoding="UTF-8"?>
<svg xmlns="http://www.w3.org/2000/svg" viewBox="0 0 680 400" role="img">
  <title>Nuvexa Brand Pattern — Assembled Grid</title>
  <desc>A modular geometric pattern abstracting a campus master plan: deep navy plot clusters, prestige gold accents, campus teal secondary marks, and two builder terracotta focal points on a campus cream canvas. Inscribed chevrons and upward-right arrows reference the logo motifs.</desc>

  <defs>
    <symbol id="chev" viewBox="0 0 40 40">
      <path d="M14 12 L 24 20 L 14 28" fill="none" stroke-width="3" stroke-linecap="round" stroke-linejoin="round" stroke="currentColor"/>
    </symbol>
    <symbol id="arr" viewBox="0 0 40 40">
      <path d="M14 26 L 26 14 M 18 14 L 26 14 L 26 22" fill="none" stroke-width="3" stroke-linecap="round" stroke-linejoin="round" stroke="currentColor"/>
    </symbol>
    <symbol id="chevthin" viewBox="0 0 40 40">
      <path d="M16 14 L 24 20 L 16 26" fill="none" stroke-width="1.4" stroke-linecap="round" stroke-linejoin="round" stroke="currentColor"/>
    </symbol>
    <symbol id="arrthin" viewBox="0 0 40 40">
      <path d="M15 25 L 25 15 M 19 15 L 25 15 L 25 21" fill="none" stroke-width="1.4" stroke-linecap="round" stroke-linejoin="round" stroke="currentColor"/>
    </symbol>
  </defs>

  <rect width="680" height="400" fill="#F4F4F0"/>

  <g fill="#0A2540">
    <rect x="80"  y="0"   width="40" height="40"/>
    <rect x="120" y="0"   width="40" height="40"/>
    <rect x="40"  y="40"  width="40" height="40"/>
    <rect x="80"  y="40"  width="40" height="40"/>
    <rect x="120" y="40"  width="40" height="40"/>
    <rect x="80"  y="80"  width="40" height="40"/>
    <rect x="160" y="80"  width="40" height="40"/>
    <rect x="200" y="80"  width="40" height="40"/>
    <rect x="360" y="80"  width="40" height="40"/>
    <rect x="360" y="120" width="40" height="40"/>
    <rect x="400" y="120" width="40" height="40"/>
    <rect x="600" y="40"  width="40" height="40"/>
    <rect x="600" y="80"  width="40" height="40"/>
    <rect x="480" y="40"  width="40" height="40"/>
    <rect x="240" y="120" width="40" height="40"/>
    <rect x="0"   y="160" width="40" height="40"/>
    <rect x="40"  y="160" width="40" height="40"/>
    <rect x="80"  y="160" width="40" height="40"/>
    <rect x="80"  y="200" width="40" height="40"/>
    <rect x="80"  y="240" width="40" height="40"/>
    <rect x="320" y="200" width="40" height="40"/>
    <rect x="320" y="240" width="40" height="40"/>
    <rect x="360" y="240" width="40" height="40"/>
    <rect x="480" y="200" width="40" height="40"/>
    <rect x="520" y="200" width="40" height="40"/>
    <rect x="520" y="240" width="40" height="40"/>
    <rect x="160" y="280" width="40" height="40"/>
    <rect x="160" y="320" width="40" height="40"/>
    <rect x="320" y="320" width="40" height="40"/>
    <rect x="360" y="320" width="40" height="40"/>
    <rect x="440" y="280" width="40" height="40"/>
    <rect x="560" y="320" width="40" height="40"/>
    <rect x="600" y="320" width="40" height="40"/>
    <rect x="560" y="360" width="40" height="40"/>
    <rect x="600" y="360" width="40" height="40"/>
    <rect x="640" y="360" width="40" height="40"/>
  </g>

  <g fill="#C5A059">
    <rect x="200" y="0"   width="40" height="40"/>
    <rect x="480" y="0"   width="40" height="40"/>
    <rect x="240" y="40"  width="40" height="40"/>
    <rect x="520" y="80"  width="40" height="40"/>
    <rect x="640" y="80"  width="40" height="40"/>
    <rect x="400" y="160" width="40" height="40"/>
    <rect x="120" y="200" width="40" height="40"/>
    <rect x="280" y="240" width="40" height="40"/>
    <rect x="640" y="240" width="40" height="40"/>
    <rect x="40"  y="280" width="40" height="40"/>
    <rect x="400" y="280" width="40" height="40"/>
    <rect x="240" y="360" width="40" height="40"/>
  </g>

  <g fill="#045E53">
    <rect x="440" y="40"  width="40" height="40"/>
    <rect x="200" y="160" width="40" height="40"/>
    <rect x="600" y="200" width="40" height="40"/>
  </g>

  <g fill="#894029">
    <rect x="280" y="120" width="40" height="40"/>
    <rect x="480" y="320" width="40" height="40"/>
  </g>

  <g style="color:#C5A059">
    <use href="#arr"  x="80"  y="0"/>
    <use href="#chev" x="120" y="0"/>
    <use href="#chev" x="80"  y="40"/>
    <use href="#arr"  x="600" y="80"/>
    <use href="#arr"  x="200" y="80"/>
    <use href="#chev" x="360" y="120"/>
    <use href="#arr"  x="400" y="120"/>
    <use href="#chev" x="80"  y="200"/>
    <use href="#chev" x="320" y="200"/>
    <use href="#arr"  x="360" y="240"/>
    <use href="#chev" x="520" y="200"/>
    <use href="#arr"  x="600" y="320"/>
    <use href="#chev" x="160" y="280"/>
    <use href="#chev" x="600" y="360"/>
    <use href="#arr"  x="640" y="360"/>
  </g>

  <g style="color:#0A2540">
    <use href="#chev" x="200" y="0"/>
    <use href="#arr"  x="480" y="0"/>
    <use href="#chev" x="280" y="240"/>
    <use href="#chev" x="640" y="80"/>
    <use href="#arr"  x="40"  y="280"/>
    <use href="#chev" x="400" y="280"/>
    <use href="#chev" x="120" y="200"/>
  </g>

  <g style="color:#0A2540" opacity="0.30">
    <use href="#chevthin" x="280" y="40"/>
    <use href="#chevthin" x="160" y="160"/>
    <use href="#arrthin"  x="440" y="160"/>
    <use href="#chevthin" x="280" y="280"/>
    <use href="#chevthin" x="120" y="320"/>
    <use href="#arrthin"  x="560" y="40"/>
    <use href="#chevthin" x="0"   y="80"/>
    <use href="#arrthin"  x="640" y="160"/>
    <use href="#chevthin" x="360" y="0"/>
    <use href="#chevthin" x="200" y="240"/>
    <use href="#arrthin"  x="480" y="120"/>
    <use href="#chevthin" x="0"   y="0"/>
    <use href="#arrthin"  x="320" y="0"/>
    <use href="#chevthin" x="560" y="160"/>
    <use href="#arrthin"  x="240" y="200"/>
    <use href="#chevthin" x="640" y="0"/>
    <use href="#arrthin"  x="40"  y="360"/>
  </g>
</svg>
